<mxfile host="app.diagrams.net" modified="2024-06-05T16:05:54.525Z" agent="Mozilla/5.0 (X11; Linux x86_64; rv:121.0) Gecko/20100101 Firefox/121.0" version="24.4.14" etag="mgKx800ckwEbQ6yx2DWC" type="github">
  <diagram name="Page-1" id="nfVJ61zegSMW1P9Fk7G5">
    <mxGraphModel>
      <root>
        <mxCell id="0" />
        <mxCell id="1" parent="0" />
      </root>
    </mxGraphModel>
  </diagram>
</mxfile>
